<svg xmlns="http://www.w3.org/2000/svg" viewBox="0 0 32 32" width="32" height="32">
  <defs>
    <linearGradient id="pinkGrad" x1="0%" y1="0%" x2="100%" y2="100%">
      <stop offset="0%" style="stop-color:#ff6b9d"/>
      <stop offset="100%" style="stop-color:#e91e8c"/>
    </linearGradient>
  </defs>
  
  <g fill="none" stroke="url(#pinkGrad)" stroke-width="2" stroke-linecap="round">
    <path d="M16 3c-5 0-9 4-9 9 0 3.5 2 6.5 5 8v2.5c0 1.4 1.1 2.5 2.5 2.5h3c1.4 0 2.5-1.1 2.5-2.5V20c3-1.5 5-4.5 5-8 0-5-4-9-9-9z" fill="url(#pinkGrad)" fill-opacity="0.15"/>
    
    <circle cx="16" cy="10" r="1.2" fill="url(#pinkGrad)"/>
    <line x1="16" y1="11.5" x2="16" y2="15"/>
    <line x1="12.5" y1="9" x2="12.5" y2="13"/>
    <line x1="19.5" y1="9" x2="19.5" y2="13"/>
    <circle cx="12.5" cy="8" r="1" fill="url(#pinkGrad)"/>
    <circle cx="19.5" cy="8" r="1" fill="url(#pinkGrad)"/>
    <line x1="12.5" y1="13" x2="16" y2="15"/>
    <line x1="19.5" y1="13" x2="16" y2="15"/>
    
    <line x1="12" y1="27" x2="20" y2="27"/>
    <line x1="13" y1="29.5" x2="19" y2="29.5"/>
  </g>
</svg>
