<svg xmlns="http://www.w3.org/2000/svg" viewBox="0 0 32 32" width="32" height="32">
  <defs>
    <linearGradient id="pinkGrad" x1="0%" y1="0%" x2="100%" y2="100%">
      <stop offset="0%" style="stop-color:#ff6b9d"/>
      <stop offset="100%" style="stop-color:#e91e8c"/>
    </linearGradient>
  </defs>
  
  <rect width="32" height="32" rx="6" fill="#0a0a0f"/>
  
  <g fill="none" stroke="url(#pinkGrad)" stroke-width="1.5" stroke-linecap="round">
    <path d="M16 5c-4.4 0-8 3.6-8 8 0 3 1.6 5.6 4 7v2c0 1.1.9 2 2 2h4c1.1 0 2-.9 2-2v-2c2.4-1.4 4-4 4-7 0-4.4-3.6-8-8-8z"/>
    
    <circle cx="16" cy="11" r="1" fill="url(#pinkGrad)"/>
    <line x1="16" y1="12" x2="16" y2="15"/>
    <line x1="13" y1="10" x2="13" y2="13"/>
    <line x1="19" y1="10" x2="19" y2="13"/>
    <circle cx="13" cy="9" r="0.8" fill="url(#pinkGrad)"/>
    <circle cx="19" cy="9" r="0.8" fill="url(#pinkGrad)"/>
    <line x1="13" y1="13" x2="16" y2="15"/>
    <line x1="19" y1="13" x2="16" y2="15"/>
    
    <line x1="13" y1="25" x2="19" y2="25"/>
    <line x1="14" y1="27" x2="18" y2="27"/>
  </g>
</svg>
